<svg width="100" height="100" viewBox="0 0 100 100" fill="none" xmlns="http://www.w3.org/2000/svg">
  <path d="M50 10C27.9 10 10 27.9 10 50C10 72.1 27.9 90 50 90C72.1 90 90 72.1 90 50C90 27.9 72.1 10 50 10ZM50 80C33.4 80 20 66.6 20 50C20 33.4 33.4 20 50 20C66.6 20 80 33.4 80 50C80 66.6 66.6 80 50 80Z" fill="#FF6B00" fill-opacity="0.1"/>
  <path d="M50 30C39 30 30 39 30 50C30 61 39 70 50 70C61 70 70 61 70 50C70 39 61 30 50 30ZM50 60C44.5 60 40 55.5 40 50C40 44.5 44.5 40 50 40C55.5 40 60 44.5 60 50C60 55.5 55.5 60 50 60Z" fill="#FF6B00" fill-opacity="0.1"/>
</svg>
